<?xml version="1.0" encoding="UTF-8" standalone="no"?>
<!-- Created with Inkscape (http://www.inkscape.org/) -->

<svg
   version="1.1"
   id="svg2"
   xml:space="preserve"
   width="1104"
   height="1104"
   viewBox="0 0 1104 1104"
   sodipodi:docname="chipmunk_enclosure_clear_parts_3mm_V5.svg"
   inkscape:version="1.1.2 (b8e25be833, 2022-02-05)"
   xmlns:inkscape="http://www.inkscape.org/namespaces/inkscape"
   xmlns:sodipodi="http://sodipodi.sourceforge.net/DTD/sodipodi-0.dtd"
   xmlns="http://www.w3.org/2000/svg"
   xmlns:svg="http://www.w3.org/2000/svg"><defs
     id="defs6" /><sodipodi:namedview
     id="namedview4"
     pagecolor="#ffffff"
     bordercolor="#666666"
     borderopacity="1.0"
     inkscape:pageshadow="2"
     inkscape:pageopacity="0.0"
     inkscape:pagecheckerboard="0"
     showgrid="false"
     inkscape:zoom="0.75271739"
     inkscape:cx="552"
     inkscape:cy="459.66787"
     inkscape:window-width="1920"
     inkscape:window-height="1017"
     inkscape:window-x="-8"
     inkscape:window-y="-8"
     inkscape:window-maximized="1"
     inkscape:current-layer="g8" /><g
     id="g8"
     inkscape:groupmode="layer"
     inkscape:label="chipmunkEnclosureV4_clearParts_3mm"
     transform="matrix(1.3333333,0,0,-1.3333333,0,1104)"><g
       id="g10"
       transform="translate(130.1504,791.3164)"><path
         d="m 0,0 h -4.844 -85.039 v -680.311 h 85.039 v 498.893 H 0 0.811 3.646 12.15 v -73.7 H 60.545 V 0 Z"
         style="fill:none;stroke:#0000ff;stroke-width:0.75;stroke-linecap:butt;stroke-linejoin:miter;stroke-miterlimit:10;stroke-dasharray:none;stroke-opacity:1"
         id="path12" /></g><g
       id="g14"
       transform="translate(130.1504,791.3164)"><path
         d="m 0,0 h -4.844 -85.039 v -680.311 h 85.039 v 498.893 H 0 0.811 3.645 12.15 v -73.7 H 60.545 V 0 Z"
         style="fill:none;stroke:#0000ff;stroke-width:0.75;stroke-linecap:butt;stroke-linejoin:miter;stroke-miterlimit:10;stroke-dasharray:none;stroke-opacity:1"
         id="path16" /></g><g
       id="g18"
       transform="translate(208.6172,111.0059)"><path
         d="M 0,0 H 4.845 89.884 V 680.311 H 4.845 V 181.418 H 0 -0.812 -3.646 -12.149 v 73.699 H -60.545 V 0 Z"
         style="fill:none;stroke:#0000ff;stroke-width:0.75;stroke-linecap:butt;stroke-linejoin:miter;stroke-miterlimit:10;stroke-dasharray:none;stroke-opacity:1"
         id="path20" /></g><g
       id="g22"
       transform="translate(208.6172,111.0059)"><path
         d="M 0,0 H 4.845 89.883 V 680.311 H 4.845 V 181.418 H 0 -0.812 -3.646 -12.149 v 73.699 H -60.545 V 0 Z"
         style="fill:none;stroke:#0000ff;stroke-width:0.75;stroke-linecap:butt;stroke-linejoin:miter;stroke-miterlimit:10;stroke-dasharray:none;stroke-opacity:1"
         id="path24" /></g><path
       d="m 276.167,22.639 h -72 v 72 h 72 z"
       style="fill:#01ff00;fill-opacity:1;fill-rule:nonzero;stroke:none"
       id="path42" /></g></svg>
